<svg width="306" height="77" viewBox="0 0 306 77" fill="none" xmlns="http://www.w3.org/2000/svg">
<circle cx="38.4262" cy="38.0737" r="25.3825" fill="#FCB0A0"/>
<circle cx="38.4262" cy="38.0738" r="21.8571" fill="white"/>
<rect y="36.311" width="76.5" height="3.52535" fill="#FCB0A0"/>
<rect x="36.6636" y="76.5" width="76.5" height="3.52535" transform="rotate(-90 36.6636 76.5)" fill="#FCB0A0"/>
<circle cx="38.25" cy="38.2499" r="13.9251" fill="white"/>
<path d="M89.5 50.795H86.82C84.5267 50.795 82.9 50.2483 81.94 49.155C80.98 48.035 80.5 46.235 80.5 43.755V26.715C80.5 24.5017 81.3 22.9017 82.9 21.915C84.5 20.9017 86.6333 20.395 89.3 20.395C91.9667 20.395 94.0867 20.9017 95.66 21.915C97.2333 22.9017 98.02 24.5017 98.02 26.715V30.435C98.02 33.0483 96.98 34.675 94.9 35.315C97.2467 35.875 98.42 37.5283 98.42 40.275V44.475C98.42 46.6883 97.6067 48.3017 95.98 49.315C94.3533 50.3017 92.1933 50.795 89.5 50.795ZM90.9 36.755H85.9C85.3667 36.755 85.1 36.2883 85.1 35.355C85.1 34.4217 85.3667 33.955 85.9 33.955H90.5C93.38 33.955 94.82 32.7817 94.82 30.435V26.315C94.82 24.235 92.9667 23.195 89.26 23.195C85.5533 23.195 83.7 24.235 83.7 26.315V43.755C83.7 45.3017 83.9267 46.395 84.38 47.035C84.86 47.675 85.6733 47.995 86.82 47.995H89.42C93.2867 47.995 95.22 46.955 95.22 44.875V40.275C95.22 37.9283 93.78 36.755 90.9 36.755ZM123.337 27.315V44.875C123.337 47.0883 122.537 48.7017 120.937 49.715C119.364 50.7017 117.271 51.195 114.657 51.195C112.044 51.195 109.951 50.7017 108.377 49.715C106.804 48.7017 106.017 47.0883 106.017 44.875V27.315C106.017 26.7017 106.551 26.395 107.617 26.395C108.684 26.395 109.217 26.7017 109.217 27.315V45.275C109.217 47.355 111.031 48.395 114.657 48.395C118.311 48.395 120.137 47.355 120.137 45.275V27.315C120.137 26.7017 120.671 26.395 121.737 26.395C122.804 26.395 123.337 26.7017 123.337 27.315ZM149.07 32.915V45.795C149.07 46.4083 148.537 46.715 147.47 46.715C146.403 46.715 145.87 46.4083 145.87 45.795V32.515C145.87 30.5417 144.203 29.5017 140.87 29.395H140.43C136.777 29.395 134.95 30.435 134.95 32.515V43.555C134.95 45.1017 135.177 46.195 135.63 46.835C136.11 47.475 136.923 47.795 138.07 47.795H141.23C143.763 47.795 145.697 48.2883 147.03 49.275C148.39 50.2617 149.07 51.875 149.07 54.115V54.275C149.07 56.515 148.39 58.1283 147.03 59.115C145.697 60.1017 143.763 60.595 141.23 60.595H132.15C131.617 60.595 131.35 60.1283 131.35 59.195C131.35 58.2617 131.617 57.795 132.15 57.795H141.23C142.803 57.795 143.963 57.555 144.71 57.075C145.483 56.595 145.87 55.795 145.87 54.675V53.715C145.87 52.595 145.483 51.795 144.71 51.315C143.963 50.835 142.803 50.595 141.23 50.595H138.07C135.777 50.595 134.15 50.0483 133.19 48.955C132.23 47.835 131.75 46.035 131.75 43.555V32.915C131.75 30.7017 132.537 29.1017 134.11 28.115C135.71 27.1017 137.817 26.595 140.43 26.595H146.03C147.763 26.595 149.137 26.3017 150.15 25.715C150.47 25.5017 150.67 25.395 150.75 25.395C151.07 25.395 151.403 25.6483 151.75 26.155C152.123 26.6617 152.31 27.0883 152.31 27.435C152.31 27.915 151.91 28.3283 151.11 28.675C150.337 29.0217 149.297 29.2483 147.99 29.355C148.71 30.3417 149.07 31.5283 149.07 32.915ZM191.178 21.715V49.875C191.178 50.4883 190.644 50.795 189.578 50.795C188.511 50.795 187.978 50.4883 187.978 49.875V37.435H175.858V49.875C175.858 50.4883 175.324 50.795 174.258 50.795C173.191 50.795 172.658 50.4883 172.658 49.875V21.715C172.658 21.1017 173.191 20.795 174.258 20.795C175.324 20.795 175.858 21.1017 175.858 21.715V34.635H187.978V21.715C187.978 21.1017 188.511 20.795 189.578 20.795C190.644 20.795 191.178 21.1017 191.178 21.715ZM217.283 27.315V44.875C217.283 47.0883 216.483 48.7017 214.883 49.715C213.309 50.7017 211.216 51.195 208.603 51.195C205.989 51.195 203.896 50.7017 202.323 49.715C200.749 48.7017 199.963 47.0883 199.963 44.875V27.315C199.963 26.7017 200.496 26.395 201.563 26.395C202.629 26.395 203.163 26.7017 203.163 27.315V45.275C203.163 47.355 204.976 48.395 208.603 48.395C212.256 48.395 214.083 47.355 214.083 45.275V27.315C214.083 26.7017 214.616 26.395 215.683 26.395C216.749 26.395 217.283 26.7017 217.283 27.315ZM243.415 32.315V49.875C243.415 50.4883 242.882 50.795 241.815 50.795C240.749 50.795 240.215 50.4883 240.215 49.875V31.915C240.215 29.835 238.389 28.795 234.735 28.795C231.109 28.795 229.295 29.835 229.295 31.915V49.875C229.295 50.4883 228.762 50.795 227.695 50.795C226.629 50.795 226.095 50.4883 226.095 49.875V32.315C226.095 30.1017 226.882 28.5017 228.455 27.515C230.029 26.5017 232.122 25.995 234.735 25.995C237.349 25.995 239.442 26.5017 241.015 27.515C242.615 28.5017 243.415 30.1017 243.415 32.315ZM257.028 21.915V26.595H261.228C261.761 26.595 262.028 27.0617 262.028 27.995C262.028 28.9283 261.761 29.395 261.228 29.395H257.028V45.915C257.028 46.7683 257.228 47.5683 257.628 48.315C258.028 49.035 258.228 49.4083 258.228 49.435C258.228 49.755 257.975 50.1017 257.468 50.475C256.961 50.8217 256.535 50.995 256.188 50.995C255.628 50.995 255.095 50.515 254.588 49.555C254.081 48.5683 253.828 47.4883 253.828 46.315V29.395H250.628C250.095 29.395 249.828 28.9283 249.828 27.995C249.828 27.0617 250.095 26.595 250.628 26.595H253.828V21.915C253.828 21.3017 254.361 20.995 255.428 20.995C256.495 20.995 257.028 21.3017 257.028 21.915Z" fill="black"/>
</svg>
