<svg width="370" height="134" viewBox="0 0 370 134" fill="none" xmlns="http://www.w3.org/2000/svg">
<circle cx="50.2304" cy="49.7696" r="33.1797" fill="url(#paint0_linear)"/>
<circle cx="50.2304" cy="49.7696" r="28.5714" fill="white"/>
<rect y="47.4655" width="100" height="4.60829" fill="url(#paint1_linear)"/>
<rect x="47.9263" y="100" width="100" height="4.60829" transform="rotate(-90 47.9263 100)" fill="url(#paint2_linear)"/>
<circle cx="50" cy="50" r="18.2028" fill="white"/>
<path d="M103.3 100.34C106.06 100.94 108.18 102.14 109.66 103.94C111.18 105.7 111.94 107.98 111.94 110.78C111.94 114.38 110.6 117.16 107.92 119.12C105.28 121.04 101.36 122 96.16 122H76.84V80H94.96C99.64 80 103.26 80.94 105.82 82.82C108.42 84.7 109.72 87.36 109.72 90.8C109.72 93.12 109.14 95.1 107.98 96.74C106.86 98.34 105.3 99.54 103.3 100.34ZM81.28 83.66V98.9H94.66C98.06 98.9 100.68 98.26 102.52 96.98C104.36 95.66 105.28 93.76 105.28 91.28C105.28 88.8 104.36 86.92 102.52 85.64C100.68 84.32 98.06 83.66 94.66 83.66H81.28ZM96.1 118.34C99.86 118.34 102.7 117.7 104.62 116.42C106.54 115.14 107.5 113.14 107.5 110.42C107.5 105.18 103.7 102.56 96.1 102.56H81.28V118.34H96.1ZM149.614 90.44V122H145.534V116.24C144.414 118.16 142.874 119.66 140.914 120.74C138.954 121.78 136.714 122.3 134.194 122.3C130.074 122.3 126.814 121.16 124.414 118.88C122.054 116.56 120.874 113.18 120.874 108.74V90.44H125.134V108.32C125.134 111.64 125.954 114.16 127.594 115.88C129.234 117.6 131.574 118.46 134.614 118.46C137.934 118.46 140.554 117.46 142.474 115.46C144.394 113.42 145.354 110.6 145.354 107V90.44H149.614ZM190.765 90.44V118.16C190.765 123.52 189.445 127.48 186.805 130.04C184.205 132.64 180.265 133.94 174.985 133.94C172.065 133.94 169.285 133.5 166.645 132.62C164.045 131.78 161.925 130.6 160.285 129.08L162.445 125.84C163.965 127.2 165.805 128.26 167.965 129.02C170.165 129.78 172.465 130.16 174.865 130.16C178.865 130.16 181.805 129.22 183.685 127.34C185.565 125.5 186.505 122.62 186.505 118.7V114.68C185.185 116.68 183.445 118.2 181.285 119.24C179.165 120.28 176.805 120.8 174.205 120.8C171.245 120.8 168.545 120.16 166.105 118.88C163.705 117.56 161.805 115.74 160.405 113.42C159.045 111.06 158.365 108.4 158.365 105.44C158.365 102.48 159.045 99.84 160.405 97.52C161.805 95.2 163.705 93.4 166.105 92.12C168.505 90.84 171.205 90.2 174.205 90.2C176.885 90.2 179.305 90.74 181.465 91.82C183.625 92.9 185.365 94.46 186.685 96.5V90.44H190.765ZM174.625 117.02C176.905 117.02 178.965 116.54 180.805 115.58C182.645 114.58 184.065 113.2 185.065 111.44C186.105 109.68 186.625 107.68 186.625 105.44C186.625 103.2 186.105 101.22 185.065 99.5C184.065 97.74 182.645 96.38 180.805 95.42C179.005 94.42 176.945 93.92 174.625 93.92C172.345 93.92 170.285 94.4 168.445 95.36C166.645 96.32 165.225 97.68 164.185 99.44C163.185 101.2 162.685 103.2 162.685 105.44C162.685 107.68 163.185 109.68 164.185 111.44C165.225 113.2 166.645 114.58 168.445 115.58C170.285 116.54 172.345 117.02 174.625 117.02ZM254.381 80V122H250.001V102.62H223.721V122H219.281V80H223.721V98.72H250.001V80H254.381ZM295.63 90.44V122H291.55V116.24C290.43 118.16 288.89 119.66 286.93 120.74C284.97 121.78 282.73 122.3 280.21 122.3C276.09 122.3 272.83 121.16 270.43 118.88C268.07 116.56 266.89 113.18 266.89 108.74V90.44H271.15V108.32C271.15 111.64 271.97 114.16 273.61 115.88C275.25 117.6 277.59 118.46 280.63 118.46C283.95 118.46 286.57 117.46 288.49 115.46C290.41 113.42 291.37 110.6 291.37 107V90.44H295.63ZM323.641 90.2C327.601 90.2 330.741 91.36 333.061 93.68C335.421 95.96 336.601 99.3 336.601 103.7V122H332.341V104.12C332.341 100.84 331.521 98.34 329.881 96.62C328.241 94.9 325.901 94.04 322.861 94.04C319.461 94.04 316.761 95.06 314.761 97.1C312.801 99.1 311.821 101.88 311.821 105.44V122H307.561V90.44H311.641V96.26C312.801 94.34 314.401 92.86 316.441 91.82C318.521 90.74 320.921 90.2 323.641 90.2ZM364.787 120.08C363.987 120.8 362.987 121.36 361.787 121.76C360.627 122.12 359.407 122.3 358.127 122.3C355.167 122.3 352.887 121.5 351.287 119.9C349.687 118.3 348.887 116.04 348.887 113.12V94.04H343.247V90.44H348.887V83.54H353.147V90.44H362.747V94.04H353.147V112.88C353.147 114.76 353.607 116.2 354.527 117.2C355.487 118.16 356.847 118.64 358.607 118.64C359.487 118.64 360.327 118.5 361.127 118.22C361.967 117.94 362.687 117.54 363.287 117.02L364.787 120.08Z" fill="black"/>
<defs>
<linearGradient id="paint0_linear" x1="6.45161" y1="6.22121" x2="96.5438" y2="97.6959" gradientUnits="userSpaceOnUse">
<stop stop-color="#DC3C3C"/>
<stop offset="1" stop-color="#EC681E"/>
</linearGradient>
<linearGradient id="paint1_linear" x1="-3.83559e-06" y1="2.99539" x2="100" y2="103.226" gradientUnits="userSpaceOnUse">
<stop stop-color="#DC3C3C"/>
<stop offset="1" stop-color="#F5620F"/>
</linearGradient>
<linearGradient id="paint2_linear" x1="146.083" y1="55.0691" x2="47.9262" y2="147.696" gradientUnits="userSpaceOnUse">
<stop stop-color="#C92525"/>
<stop offset="1" stop-color="#EC681E"/>
</linearGradient>
</defs>
</svg>
